<?xml version="1.0" encoding="UTF-8" standalone="no"?>
<!DOCTYPE svg PUBLIC "-//W3C//DTD SVG 1.1//EN"
 "http://www.w3.org/Graphics/SVG/1.1/DTD/svg11.dtd">
<!-- Generated by graphviz version 2.36.0 (20140111.2315)
 -->
<!-- Title: controllers_diagram Pages: 1 -->
<svg width="400pt" height="484pt"
 viewBox="0.00 0.00 400.00 484.00" xmlns="http://www.w3.org/2000/svg" xmlns:xlink="http://www.w3.org/1999/xlink">
<g id="graph0" class="graph" transform="scale(1 1) rotate(0) translate(4 480)">
<title>controllers_diagram</title>
<polygon fill="none" stroke="none" points="-4,4 -4,-480 396,-480 396,4 -4,4"/>
<!-- _diagram_info -->
<g id="node1" class="node"><title>_diagram_info</title>
<text text-anchor="start" x="184" y="-63.6" font-family="Times,serif" font-size="13.00">Controllers diagram</text>
<text text-anchor="start" x="184" y="-49.6" font-family="Times,serif" font-size="13.00">Date: Apr 28 2016 &#45; 22:10</text>
<text text-anchor="start" x="184" y="-35.6" font-family="Times,serif" font-size="13.00">Migration version: 20160427005453</text>
<text text-anchor="start" x="184" y="-21.6" font-family="Times,serif" font-size="13.00">Generated by RailRoady 1.4.2</text>
<text text-anchor="start" x="184" y="-7.6" font-family="Times,serif" font-size="13.00">http://railroady.prestonlee.com</text>
</g>
<!-- ApplicationController -->
<g id="node2" class="node"><title>ApplicationController</title>
<path fill="none" stroke="black" d="M12,-304.5C12,-304.5 124,-304.5 124,-304.5 130,-304.5 136,-310.5 136,-316.5 136,-316.5 136,-400.5 136,-400.5 136,-406.5 130,-412.5 124,-412.5 124,-412.5 12,-412.5 12,-412.5 6,-412.5 -1.42109e-14,-406.5 -1.42109e-14,-400.5 -1.42109e-14,-400.5 -1.42109e-14,-316.5 -1.42109e-14,-316.5 -1.42109e-14,-310.5 6,-304.5 12,-304.5"/>
<text text-anchor="middle" x="68" y="-397.3" font-family="Times,serif" font-size="14.00">ApplicationController</text>
<polyline fill="none" stroke="black" points="-1.42109e-14,-389.5 136,-389.5 "/>
<text text-anchor="start" x="8" y="-374.3" font-family="Times,serif" font-size="14.00">news_footer</text>
<text text-anchor="start" x="8" y="-359.3" font-family="Times,serif" font-size="14.00">news_header</text>
<polyline fill="none" stroke="black" points="-1.42109e-14,-351.5 136,-351.5 "/>
<polyline fill="none" stroke="black" points="-1.42109e-14,-327.5 136,-327.5 "/>
<text text-anchor="start" x="8" y="-312.3" font-family="Times,serif" font-size="14.00">_layout</text>
</g>
<!-- LoginController -->
<g id="node3" class="node"><title>LoginController</title>
<path fill="none" stroke="black" d="M300,-352.5C300,-352.5 380,-352.5 380,-352.5 386,-352.5 392,-358.5 392,-364.5 392,-364.5 392,-463.5 392,-463.5 392,-469.5 386,-475.5 380,-475.5 380,-475.5 300,-475.5 300,-475.5 294,-475.5 288,-469.5 288,-463.5 288,-463.5 288,-364.5 288,-364.5 288,-358.5 294,-352.5 300,-352.5"/>
<text text-anchor="middle" x="340" y="-460.3" font-family="Times,serif" font-size="14.00">LoginController</text>
<polyline fill="none" stroke="black" points="288,-452.5 392,-452.5 "/>
<text text-anchor="start" x="296" y="-437.3" font-family="Times,serif" font-size="14.00">create</text>
<text text-anchor="start" x="296" y="-422.3" font-family="Times,serif" font-size="14.00">destroy</text>
<text text-anchor="start" x="296" y="-407.3" font-family="Times,serif" font-size="14.00">new</text>
<polyline fill="none" stroke="black" points="288,-399.5 392,-399.5 "/>
<polyline fill="none" stroke="black" points="288,-375.5 392,-375.5 "/>
<text text-anchor="start" x="296" y="-360.3" font-family="Times,serif" font-size="14.00">_layout</text>
</g>
<!-- NewsController -->
<g id="node4" class="node"><title>NewsController</title>
<path fill="none" stroke="black" d="M188,-112.5C188,-112.5 267,-112.5 267,-112.5 273,-112.5 279,-118.5 279,-124.5 279,-124.5 279,-313.5 279,-313.5 279,-319.5 273,-325.5 267,-325.5 267,-325.5 188,-325.5 188,-325.5 182,-325.5 176,-319.5 176,-313.5 176,-313.5 176,-124.5 176,-124.5 176,-118.5 182,-112.5 188,-112.5"/>
<text text-anchor="middle" x="227.5" y="-310.3" font-family="Times,serif" font-size="14.00">NewsController</text>
<polyline fill="none" stroke="black" points="176,-302.5 279,-302.5 "/>
<text text-anchor="start" x="184" y="-287.3" font-family="Times,serif" font-size="14.00">check_login</text>
<text text-anchor="start" x="184" y="-272.3" font-family="Times,serif" font-size="14.00">create</text>
<text text-anchor="start" x="184" y="-257.3" font-family="Times,serif" font-size="14.00">destroy</text>
<text text-anchor="start" x="184" y="-242.3" font-family="Times,serif" font-size="14.00">edit</text>
<text text-anchor="start" x="184" y="-227.3" font-family="Times,serif" font-size="14.00">index</text>
<text text-anchor="start" x="184" y="-212.3" font-family="Times,serif" font-size="14.00">new</text>
<text text-anchor="start" x="184" y="-197.3" font-family="Times,serif" font-size="14.00">news_params</text>
<text text-anchor="start" x="184" y="-182.3" font-family="Times,serif" font-size="14.00">update</text>
<text text-anchor="start" x="184" y="-167.3" font-family="Times,serif" font-size="14.00">userpag</text>
<polyline fill="none" stroke="black" points="176,-159.5 279,-159.5 "/>
<polyline fill="none" stroke="black" points="176,-135.5 279,-135.5 "/>
<text text-anchor="start" x="184" y="-120.3" font-family="Times,serif" font-size="14.00">_layout</text>
</g>
<!-- UsersController -->
<g id="node5" class="node"><title>UsersController</title>
<path fill="none" stroke="black" d="M60,-48.5C60,-48.5 139,-48.5 139,-48.5 145,-48.5 151,-54.5 151,-60.5 151,-60.5 151,-264.5 151,-264.5 151,-270.5 145,-276.5 139,-276.5 139,-276.5 60,-276.5 60,-276.5 54,-276.5 48,-270.5 48,-264.5 48,-264.5 48,-60.5 48,-60.5 48,-54.5 54,-48.5 60,-48.5"/>
<text text-anchor="middle" x="99.5" y="-261.3" font-family="Times,serif" font-size="14.00">UsersController</text>
<polyline fill="none" stroke="black" points="48,-253.5 151,-253.5 "/>
<text text-anchor="start" x="56" y="-238.3" font-family="Times,serif" font-size="14.00">create</text>
<text text-anchor="start" x="56" y="-223.3" font-family="Times,serif" font-size="14.00">destroy</text>
<text text-anchor="start" x="56" y="-208.3" font-family="Times,serif" font-size="14.00">edit</text>
<text text-anchor="start" x="56" y="-193.3" font-family="Times,serif" font-size="14.00">index</text>
<text text-anchor="start" x="56" y="-178.3" font-family="Times,serif" font-size="14.00">new</text>
<text text-anchor="start" x="56" y="-163.3" font-family="Times,serif" font-size="14.00">show</text>
<text text-anchor="start" x="56" y="-148.3" font-family="Times,serif" font-size="14.00">update</text>
<polyline fill="none" stroke="black" points="48,-140.5 151,-140.5 "/>
<polyline fill="none" stroke="black" points="48,-116.5 151,-116.5 "/>
<text text-anchor="start" x="56" y="-101.3" font-family="Times,serif" font-size="14.00">_layout</text>
<text text-anchor="start" x="56" y="-86.3" font-family="Times,serif" font-size="14.00">set_user</text>
<text text-anchor="start" x="56" y="-71.3" font-family="Times,serif" font-size="14.00">user_params</text>
<text text-anchor="start" x="56" y="-56.3" font-family="Times,serif" font-size="14.00">valid_admin</text>
</g>
</g>
</svg>
