<?xml version="1.0" encoding="UTF-8" standalone="no"?>
<!DOCTYPE svg PUBLIC "-//W3C//DTD SVG 1.1//EN"
 "http://www.w3.org/Graphics/SVG/1.1/DTD/svg11.dtd">
<!-- Generated by graphviz version 2.36.0 (20140111.2315)
 -->
<!-- Title: models_diagram Pages: 1 -->
<svg width="709pt" height="280pt"
 viewBox="0.00 0.00 709.00 280.00" xmlns="http://www.w3.org/2000/svg" xmlns:xlink="http://www.w3.org/1999/xlink">
<g id="graph0" class="graph" transform="scale(1 1) rotate(0) translate(4 276)">
<title>models_diagram</title>
<polygon fill="none" stroke="none" points="-4,4 -4,-276 705,-276 705,4 -4,4"/>
<!-- _diagram_info -->
<g id="node1" class="node"><title>_diagram_info</title>
<text text-anchor="start" x="7" y="-160.6" font-family="Times,serif" font-size="13.00">Models diagram</text>
<text text-anchor="start" x="7" y="-146.6" font-family="Times,serif" font-size="13.00">Date: Apr 28 2016 &#45; 22:10</text>
<text text-anchor="start" x="7" y="-132.6" font-family="Times,serif" font-size="13.00">Migration version: 20160427005453</text>
<text text-anchor="start" x="7" y="-118.6" font-family="Times,serif" font-size="13.00">Generated by RailRoady 1.4.2</text>
<text text-anchor="start" x="7" y="-104.6" font-family="Times,serif" font-size="13.00">http://railroady.prestonlee.com</text>
</g>
<!-- News -->
<g id="node2" class="node"><title>News</title>
<path fill="none" stroke="black" d="M243,-0.5C243,-0.5 391,-0.5 391,-0.5 397,-0.5 403,-6.5 403,-12.5 403,-12.5 403,-259.5 403,-259.5 403,-265.5 397,-271.5 391,-271.5 391,-271.5 243,-271.5 243,-271.5 237,-271.5 231,-265.5 231,-259.5 231,-259.5 231,-12.5 231,-12.5 231,-6.5 237,-0.5 243,-0.5"/>
<text text-anchor="middle" x="317" y="-256.3" font-family="Times,serif" font-size="14.00">News</text>
<polyline fill="none" stroke="black" points="231,-248.5 403,-248.5 "/>
<text text-anchor="start" x="239" y="-233.3" font-family="Times,serif" font-size="14.00">id :INTEGER</text>
<text text-anchor="start" x="239" y="-218.3" font-family="Times,serif" font-size="14.00">title :varchar</text>
<text text-anchor="start" x="239" y="-203.3" font-family="Times,serif" font-size="14.00">subtitle :varchar</text>
<text text-anchor="start" x="239" y="-188.3" font-family="Times,serif" font-size="14.00">body :varchar</text>
<text text-anchor="start" x="239" y="-173.3" font-family="Times,serif" font-size="14.00">created_at :datetime</text>
<text text-anchor="start" x="239" y="-158.3" font-family="Times,serif" font-size="14.00">updated_at :datetime</text>
<text text-anchor="start" x="239" y="-143.3" font-family="Times,serif" font-size="14.00">photo_file_name :varchar</text>
<text text-anchor="start" x="239" y="-128.3" font-family="Times,serif" font-size="14.00">photo_content_type :varchar</text>
<text text-anchor="start" x="239" y="-113.3" font-family="Times,serif" font-size="14.00">photo_file_size :integer</text>
<text text-anchor="start" x="239" y="-98.3" font-family="Times,serif" font-size="14.00">photo_updated_at :datetime</text>
<text text-anchor="start" x="239" y="-83.3" font-family="Times,serif" font-size="14.00">user_id :integer</text>
<text text-anchor="start" x="239" y="-68.3" font-family="Times,serif" font-size="14.00">title_show :boolean</text>
<text text-anchor="start" x="239" y="-53.3" font-family="Times,serif" font-size="14.00">subtitle_show :boolean</text>
<text text-anchor="start" x="239" y="-38.3" font-family="Times,serif" font-size="14.00">body_show :boolean</text>
<text text-anchor="start" x="239" y="-23.3" font-family="Times,serif" font-size="14.00">photo_show :boolean</text>
<text text-anchor="start" x="239" y="-8.3" font-family="Times,serif" font-size="14.00">show :varchar</text>
</g>
<!-- Role -->
<g id="node3" class="node"><title>Role</title>
<path fill="none" stroke="black" d="M433.5,-90.5C433.5,-90.5 540.5,-90.5 540.5,-90.5 546.5,-90.5 552.5,-96.5 552.5,-102.5 552.5,-102.5 552.5,-169.5 552.5,-169.5 552.5,-175.5 546.5,-181.5 540.5,-181.5 540.5,-181.5 433.5,-181.5 433.5,-181.5 427.5,-181.5 421.5,-175.5 421.5,-169.5 421.5,-169.5 421.5,-102.5 421.5,-102.5 421.5,-96.5 427.5,-90.5 433.5,-90.5"/>
<text text-anchor="middle" x="487" y="-166.3" font-family="Times,serif" font-size="14.00">Role</text>
<polyline fill="none" stroke="black" points="421.5,-158.5 552.5,-158.5 "/>
<text text-anchor="start" x="429.5" y="-143.3" font-family="Times,serif" font-size="14.00">id :INTEGER</text>
<text text-anchor="start" x="429.5" y="-128.3" font-family="Times,serif" font-size="14.00">description :varchar</text>
<text text-anchor="start" x="429.5" y="-113.3" font-family="Times,serif" font-size="14.00">created_at :datetime</text>
<text text-anchor="start" x="429.5" y="-98.3" font-family="Times,serif" font-size="14.00">updated_at :datetime</text>
</g>
<!-- User -->
<g id="node4" class="node"><title>User</title>
<path fill="none" stroke="black" d="M582.5,-68C582.5,-68 689.5,-68 689.5,-68 695.5,-68 701.5,-74 701.5,-80 701.5,-80 701.5,-192 701.5,-192 701.5,-198 695.5,-204 689.5,-204 689.5,-204 582.5,-204 582.5,-204 576.5,-204 570.5,-198 570.5,-192 570.5,-192 570.5,-80 570.5,-80 570.5,-74 576.5,-68 582.5,-68"/>
<text text-anchor="middle" x="636" y="-188.8" font-family="Times,serif" font-size="14.00">User</text>
<polyline fill="none" stroke="black" points="570.5,-181 701.5,-181 "/>
<text text-anchor="start" x="578.5" y="-165.8" font-family="Times,serif" font-size="14.00">id :INTEGER</text>
<text text-anchor="start" x="578.5" y="-150.8" font-family="Times,serif" font-size="14.00">name :varchar</text>
<text text-anchor="start" x="578.5" y="-135.8" font-family="Times,serif" font-size="14.00">password :varchar</text>
<text text-anchor="start" x="578.5" y="-120.8" font-family="Times,serif" font-size="14.00">created_at :datetime</text>
<text text-anchor="start" x="578.5" y="-105.8" font-family="Times,serif" font-size="14.00">updated_at :datetime</text>
<text text-anchor="start" x="578.5" y="-90.8" font-family="Times,serif" font-size="14.00">email :varchar</text>
<text text-anchor="start" x="578.5" y="-75.8" font-family="Times,serif" font-size="14.00">role_id :integer</text>
</g>
</g>
</svg>
